<?xml version="1.0" encoding="utf-8"?>
<!-- Generator: Adobe Illustrator 16.0.0, SVG Export Plug-In . SVG Version: 6.00 Build 0)  -->
<!DOCTYPE svg PUBLIC "-//W3C//DTD SVG 1.1//EN" "http://www.w3.org/Graphics/SVG/1.1/DTD/svg11.dtd">
<svg version="1.1" id="Layer_1" xmlns="http://www.w3.org/2000/svg" xmlns:xlink="http://www.w3.org/1999/xlink" x="0px" y="0px"
	 width="77.273px" height="100px" viewBox="0 0 77.273 100" enable-background="new 0 0 77.273 100" xml:space="preserve">
<g>
	<path d="M69.582,65.492c0,7.954-20.338,11.59-32.384,11.59c-12.045,0-32.273-3.636-32.273-11.59c0-1.25,0.453-2.387,1.362-3.41
		c11.026-22.612,8.183-33.181,14.208-41.59c2.725-3.751,5.906-6.137,11.021-7.273c0.229-2.953,2.614-5.227,5.682-5.227
		c2.953,0,5.454,2.274,5.683,5.227c5.11,1.136,8.297,3.522,11.021,7.273c6.021,8.409,3.182,18.978,14.203,41.59
		C69.014,63.105,69.582,64.242,69.582,65.492z M62.88,63.22c-4.662-5.567-16.708-6.704-25.682-6.704
		c-8.863,0-21.023,1.137-25.682,6.704c4.658,5.568,16.818,6.933,25.682,6.818C46.172,70.038,58.218,68.9,62.88,63.22z
		 M32.083,60.493c0-0.684,3.524-0.796,5.115-0.796c3.978,0,5.111,0.341,5.111,0.796c0,3.182-2.272,5.68-5.111,5.68
		C34.355,66.173,32.083,63.675,32.083,60.493z"/>
</g>
</svg>
