<svg xmlns="http://www.w3.org/2000/svg" xmlns:xlink="http://www.w3.org/1999/xlink" version="1.1" id="Layer_1" x="0px" y="0px" width="100px" height="87.5px" viewBox="0 0 100 87.5" style="enable-background:new 0 0 100 87.5;" xml:space="preserve"><path style="fill:#010101;" d="M62.329,62.5l18.774-25L100,62.5H87.5v6.25c0,10.34-8.41,18.75-18.75,18.75h-37.5  c-10.34,0-18.75-8.41-18.75-18.75V62.5H25v6.25c0,3.442,2.808,6.25,6.25,6.25h37.5c3.442,0,6.25-2.808,6.25-6.25V62.5H62.329z"/><path style="fill:#010101;" d="M37.671,25L18.896,50L0,25h12.5v-6.25C12.5,8.41,20.91,0,31.25,0h37.5C79.09,0,87.5,8.41,87.5,18.75  V25H75v-6.25c0-3.442-2.808-6.25-6.25-6.25h-37.5c-3.442,0-6.25,2.808-6.25,6.25V25H37.671z"/></svg>